<svg id="Layer_1" data-name="Layer 1" xmlns="http://www.w3.org/2000/svg" viewBox="0 0 204 48"><defs><style>.cls-1{fill:#050507;}.cls-2{fill:#ab8e71;}</style></defs><title>logo</title><path class="cls-1" d="M9,11.12a14.22,14.22,0,0,1,10.24-.81C24.4,12,27.75,15.49,28.58,21a59.19,59.19,0,0,1,.19,14.07c-.55,6.09-6.09,11.34-12.21,11.8-3.06.23-6.12.07-9.18.06-.61,0-.74-.23-.74-.78,0-1.85,0-3.71,0-5.56,0-.81.32-.92,1-.89a41.92,41.92,0,0,0,8.08-.08c1.88-.28,3.77-.64,4.69-2.67.48-.3.41-.82.49-1.27a25.08,25.08,0,0,0,0-5.93c.62,0,.81-.29.81-.89,0-1.73.07-3.46.07-5.18A6.49,6.49,0,0,0,14.2,17c-2.55.33-3.9,2-4.94,4.1-.35-.1-.37-.39-.38-.67A90.08,90.08,0,0,1,9,11.12Z"/><path class="cls-2" d="M20.86,29.76a25.08,25.08,0,0,1,0,5.93c-.09.45,0,1-.49,1.27-2.81-.13-5.66.25-8.42-.48a13.3,13.3,0,0,1-8.89-7.17,14.22,14.22,0,0,1-1.35-6.75c0-3.91,0-7.82,0-11.72,0-1,.31-1.24,1.24-1.2a37,37,0,0,0,4.35,0C8.46,9.54,9,9.92,9,11.12a90.08,90.08,0,0,0-.09,9.29c0,.28,0,.58.38.67C7.58,26.56,11.7,29.9,16,29.73,17.64,29.67,19.25,29.75,20.86,29.76Z"/><path class="cls-2" d="M4.6.64A4.08,4.08,0,0,1,8.86,4.75,4.19,4.19,0,0,1,4.55,8.88,4.14,4.14,0,0,1,.71,4.7,4,4,0,0,1,4.6.64Z"/><path class="cls-1" d="M144.69,20.67a24,24,0,0,1,4.65.16,3.93,3.93,0,0,1,3.11,3.51c.51,4.27-2.29,7.4-6.59,7.29-1.61,0-3.23-.13-4.84,0-.24,0-.62.2-.69-.2s.36-.37.58-.39c.88-.08,1.17-.53,1.15-1.4,0-2.29,0-4.57,0-6.86,0-.83-.19-1.35-1.11-1.41-.28,0-.71,0-.61-.48s.47-.16.71-.16C142.26,20.66,143.48,20.67,144.69,20.67Zm-.3,5.43h0q0,2,0,3.93c0,.27,0,.51.33.65a3.9,3.9,0,0,0,4.4-1.54,6.72,6.72,0,0,0,.34-5.74,2.69,2.69,0,0,0-2.4-1.84c-.66-.06-1.34,0-2,0-.51,0-.69.22-.69.72C144.41,23.55,144.4,24.82,144.4,26.1Z"/><path class="cls-1" d="M113.4,26c.76,0,1.53,0,2.29,0,.18,0,.46-.12.49.23s-.13.32-.34.33c-1.21.06-1.4.82-1.29,1.83a9.79,9.79,0,0,1,0,1.1c0,1.66,0,1.64-1.68,2a11.9,11.9,0,0,1-6.15,0,4.2,4.2,0,0,1-2.46-2.06A6,6,0,0,1,109,20.5a14.8,14.8,0,0,1,4.82.33c.33.08.55.14.55.56,0,.79,0,1.59.05,2.38,0,.19.05.39-.2.43s-.44.07-.57-.17a2.66,2.66,0,0,1-.09-.26c-.84-2-1.41-2.44-3.33-2.43a3.4,3.4,0,0,0-3.66,2.56,6.37,6.37,0,0,0,.15,4.82,4,4,0,0,0,5.14,1.86c.34-.16.34-.38.34-.65,0-.55,0-1.1,0-1.65,0-.9,0-1.66-1.19-1.73-.23,0-.42-.14-.35-.42s.28-.18.45-.18h2.29Z"/><path class="cls-2" d="M54.75,28.73c0-2.36.07-4.6-.14-6.84-.06-.6-.62-.48-1-.64s-.65,0-.58-.43.41-.16.63-.16c1.07,0,2.14,0,3.2,0,.17,0,.41-.09.47.15s-.18.38-.39.39c-1.19.07-1.34.78-1.32,1.8.06,2.62,0,5.25,0,7.87,0,.31.16.72-.25.89s-.56-.26-.76-.5l-6.16-7.48c-.19-.23-.4-.43-.75-.81,0,2.05,0,3.89,0,5.74,0,.34,0,.67,0,1-.07.8.22,1.28,1.07,1.36.22,0,.59,0,.55.33s-.38.22-.61.22h-3.2c-.18,0-.41,0-.46-.18s.21-.35.41-.36c1.14,0,1.24-.77,1.23-1.69,0-2.26,0-4.52.05-6.78,0-.79-.21-1.3-1.1-1.29a1.45,1.45,0,0,1-.45-.09c-.22-.07-.56,0-.51-.39s.34-.17.54-.18c.7,0,1.41,0,2.1,0,.48,0,.7.25,1,.57q2.68,3.3,5.39,6.58A2.85,2.85,0,0,0,54.75,28.73Z"/><path class="cls-1" d="M134.11,31.59H130c-.19,0-.46.12-.49-.23s.22-.34.42-.34c1.14,0,1.33-.7,1.3-1.71-.07-2.26-.05-4.52,0-6.77,0-.75-.21-1.16-1-1.19a1.94,1.94,0,0,1-.53-.13c-.17-.06-.2-.21-.18-.37s.19-.19.34-.18q2.7.12,5.4,0c.16,0,.31,0,.32.21a.3.3,0,0,1-.22.35l-.18,0c-.48.16-1.19-.08-1.42.43a4.41,4.41,0,0,0-.17,1.71c0,2.11,0,4.21,0,6.31,0,.79.24,1,1,.94a3.44,3.44,0,0,1,.91,0,2.78,2.78,0,0,0,3.34-1.71c.12-.29.36-.58.7-.39s0,.44,0,.65c-.29.77-.24,1.8-.85,2.26s-1.52.09-2.3.1-1.46,0-2.19,0Z"/><path class="cls-2" d="M73.55,31.64H69.7c-.2,0-.49.08-.52-.22s.26-.32.46-.33c1.17-.06,1.3-.78,1.28-1.76-.05-2.29,0-4.58,0-6.87,0-.71-.2-1.08-.95-1.14-.29,0-.81,0-.76-.47s.51-.17.78-.18c2.38,0,4.76,0,7.15,0,.62,0,.91.13.87.8a12.13,12.13,0,0,0,.07,1.46c0,.2,0,.38-.23.43s-.35-.1-.37-.3c-.2-1.49-1.21-1.64-2.41-1.5-.83.1-1.95-.39-2.43.23s-.16,1.58-.18,2.4c0,1.31,0,1.31,1.33,1.31.34,0,.67,0,1,0,.72.06,1.18-.18,1.28-1,0-.22,0-.56.38-.53s.26.42.26.66c0,.85,0,1.71,0,2.56,0,.22.11.54-.25.58s-.33-.26-.34-.45c-.05-.9-.61-1.05-1.38-1.06-2.29,0-2.29,0-2.29,2.2s0,2.3,2.28,2.31c.37,0,.74,0,1.1,0a1.82,1.82,0,0,0,2-1.13,5.61,5.61,0,0,1,.42-.7.34.34,0,0,1,.39-.17c.27.09.14.29.1.45s-.07.17-.09.26c-.66,2.15-.66,2.15-2.9,2.15h-2.2Z"/><path class="cls-2" d="M83.12,31.85a4.05,4.05,0,0,1-1.51-.19c-.44-.18-1.15-.07-1.26-.57a6.9,6.9,0,0,1,.13-2.54c0-.07.19-.14.29-.15s.27.12.32.28.16.59.28.87A2.49,2.49,0,0,0,85,30.67a1.87,1.87,0,0,0,.23-3.09,8.45,8.45,0,0,0-2-1.1c-.33-.16-.66-.31-1-.48-1.5-.81-2-1.75-1.77-3a3.33,3.33,0,0,1,3-2.47,9.06,9.06,0,0,1,1.28,0c2,.1,2.54.82,2.15,2.75,0,.19-.08.36-.32.36s-.34-.27-.42-.5c-.46-1.42-1-1.86-2.22-1.88a1.83,1.83,0,0,0-2,1.19,1.73,1.73,0,0,0,1,2.11c.83.46,1.7.82,2.53,1.27,1.6.86,2.23,2.1,1.88,3.58A3.63,3.63,0,0,1,84,31.84Z"/><path class="cls-2" d="M93.6,20.65c1.31,0,2.63,0,3.94,0,.54,0,.8.11.79.69s0,1.22.07,1.83c0,.21.05.46-.26.49s-.27-.17-.35-.34c-.25-.54-.12-1.31-.72-1.62s-1.38-.07-2.08-.14c-.53-.05-.68.19-.67.69,0,2.59,0,5.19,0,7.78,0,.85.51.9,1.09,1,.23.05.66,0,.59.38s-.41.19-.63.19H91.5c-.2,0-.49.07-.53-.21s.25-.32.45-.32c1.21,0,1.36-.74,1.34-1.75,0-2.32,0-4.64,0-7,0-.63-.2-.91-.84-.83a3.69,3.69,0,0,1-.91,0,1.3,1.3,0,0,0-1.6,1.21,4.14,4.14,0,0,1-.14.53c-.07.2-.15.42-.43.37s-.27-.28-.23-.5c0-.06,0-.12,0-.18.21-2.34.21-2.34,2.57-2.31H93.6Z"/><path class="cls-2" d="M63.68,28.88c1-2.2,1.67-4.5,2.43-6.77.2-.59-.2-.74-.63-.88-.2-.06-.47-.1-.43-.38s.34-.19.53-.19h2.93c.14.22.1.37,0,.4-1.12.29-1.4,1.26-1.74,2.17q-1.5,4-3,8c-.1.27-.06.66-.5.66s-.4-.38-.51-.65q-1.62-4.27-3.24-8.54c-.25-.67-.55-1.3-1.38-1.43-.19,0-.47-.1-.38-.4s.3-.16.47-.16h3.47c.14,0,.33-.05.39.14s-.09.35-.28.39c-1,.18-.91.79-.63,1.54.76,2,1.48,4.11,2.22,6.16Z"/><path class="cls-2" d="M41.78,20.65h2c.17,0,.4,0,.42.22a.3.3,0,0,1-.3.29c-1.61,0-1.45,1.18-1.45,2.26,0,2.1,0,4.21,0,6.31,0,.88.27,1.31,1.15,1.36.23,0,.66-.06.6.35s-.4.19-.63.19H39.74c-.2,0-.48.05-.48-.26s.24-.22.41-.28C41,30.68,41,30.68,41,29.21q0-3.24,0-6.49c0-.81-.15-1.37-1.08-1.46-.25,0-.68-.06-.64-.38s.5-.2.76-.21c.58,0,1.16,0,1.74,0Z"/><path class="cls-1" d="M123.13,20.45c3.48,0,5.51,2,5.51,5.29,0,3.82-2.28,6.1-6.07,6.09-3.43,0-5.43-2-5.42-5.5C117.15,22.68,119.42,20.45,123.13,20.45ZM126,26.33a10.6,10.6,0,0,0-.39-2.89,2.82,2.82,0,0,0-5.47-.15,8.88,8.88,0,0,0,.1,5.82,2.71,2.71,0,0,0,2.87,1.93,2.61,2.61,0,0,0,2.55-2.19A9.35,9.35,0,0,0,126,26.33Z"/></svg>