<svg xmlns="http://www.w3.org/2000/svg" xmlns:xlink="http://www.w3.org/1999/xlink" width="97" height="57" viewBox="0 0 97 57"><defs><linearGradient id="a" x1="0.5" y1="0.991" x2="0.5" y2="-0.004" gradientUnits="objectBoundingBox"><stop offset="0.27" stop-color="#e0e1e2"/><stop offset="1" stop-color="#c0c2c4"/></linearGradient><clipPath id="c"><rect width="97" height="57"/></clipPath></defs><g id="b" clip-path="url(#c)"><path d="M45.592,57H12.9A160.284,160.284,0,0,0,8.477,28.5,80.976,80.976,0,0,0,.7,9.44a6.256,6.256,0,0,1,.13-6A6.291,6.291,0,0,1,3.539,1,11.153,11.153,0,0,1,8.477,0H82.524A11.151,11.151,0,0,1,87.461,1a6.291,6.291,0,0,1,2.705,2.441,6.256,6.256,0,0,1,.13,6A80.938,80.938,0,0,0,82.524,28.5,160.232,160.232,0,0,0,78.1,57Z" transform="translate(3 -0.001)" fill="url(#a)"/></g></svg>
